<svg xmlns="http://www.w3.org/2000/svg" viewBox="4 1 66 71">
  <defs>
    <filter id="sg" x="-30%" y="-30%" width="160%" height="160%">
      <feGaussianBlur stdDeviation="2" result="blur"/>
      <feMerge><feMergeNode in="blur"/><feMergeNode in="SourceGraphic"/></feMerge>
    </filter>
    <filter id="ss" x="-20%" y="-20%" width="140%" height="140%">
      <feGaussianBlur stdDeviation="1" result="blur"/>
      <feMerge><feMergeNode in="blur"/><feMergeNode in="SourceGraphic"/></feMerge>
    </filter>
    <radialGradient id="sbg" cx="50%" cy="35%" r="65%">
      <stop offset="0%" stop-color="#0e3d14"/>
      <stop offset="100%" stop-color="#010c02"/>
    </radialGradient>
    <radialGradient id="sbg2" cx="38%" cy="35%" r="55%">
      <stop offset="0%" stop-color="#ffffff"/>
      <stop offset="100%" stop-color="#cccccc"/>
    </radialGradient>
  </defs>
  <!-- Shield fill -->
  <path d="M37 3 L68 12 L68 38 Q68 58 37 70 Q6 58 6 38 L6 12 Z" fill="url(#sbg)"/>
  <!-- Shield border neon -->
  <path d="M37 3 L68 12 L68 38 Q68 58 37 70 Q6 58 6 38 L6 12 Z"
        fill="none" stroke="#1fdd60" stroke-width="1.8" filter="url(#sg)"/>
  <!-- Inner border -->
  <path d="M37 8 L63 16 L63 37 Q63 55 37 65 Q11 55 11 37 L11 16 Z"
        fill="none" stroke="#1fdd60" stroke-width="0.6" opacity="0.3"/>
  <!-- Radar grid lines -->
  <line x1="37" y1="14" x2="37" y2="62" stroke="#1fdd60" stroke-width="0.4" opacity="0.3"/>
  <line x1="11" y1="37" x2="63" y2="37" stroke="#1fdd60" stroke-width="0.4" opacity="0.3"/>
  <line x1="18" y1="20" x2="56" y2="54" stroke="#1fdd60" stroke-width="0.3" opacity="0.18"/>
  <line x1="56" y1="20" x2="18" y2="54" stroke="#1fdd60" stroke-width="0.3" opacity="0.18"/>
  <!-- Radar circles -->
  <circle cx="37" cy="37" r="20" fill="none" stroke="#1fdd60" stroke-width="0.5" opacity="0.22"/>
  <circle cx="37" cy="37" r="14" fill="none" stroke="#1fdd60" stroke-width="0.6" opacity="0.3"/>
  <circle cx="37" cy="37" r="8"  fill="none" stroke="#1fdd60" stroke-width="0.7" opacity="0.45"/>
  <!-- Sweep line -->
  <line x1="37" y1="37" x2="56" y2="20" stroke="#1fdd60" stroke-width="1.6"
        stroke-linecap="round" filter="url(#sg)" opacity="0.95"/>
  <path d="M37 37 L56 20 A20 20 0 0 1 57 37" fill="#1fdd60" opacity="0.07"/>
  <!-- Football -->
  <circle cx="37" cy="37" r="7" fill="url(#sbg2)" filter="url(#ss)"/>
  <polygon points="37,31 40,33 39.5,37 34.5,37 34,33" fill="#111" opacity="0.85"/>
  <polygon points="44,34.5 46,37 44,39.5 41,39 41,34.5" fill="#111" opacity="0.85"/>
  <polygon points="30,34.5 28,37 30,39.5 33,39 33,34.5" fill="#111" opacity="0.85"/>
  <polygon points="39.5,40 37,43 34.5,40 35,37.5 39,37.5" fill="#111" opacity="0.85"/>
</svg>
